# xmcd CD database file
#
# Track frame offsets:
#	150
#	12412
#	32472
#	44152
#	64915
#	75640
#	92957
#	105135
#	117247
#	130722
#	143817
#	159822
#	175100
#	188790
#	200532
#	217580
#	236222
#	246450
#	258225
#	271577
#	281275
#	299110
#	310122
#
# Disc length: 4441 seconds
#
# Revision: 2
# Processed by: cddbd v1.5.2PL0 Copyright (c) Steve Scherf et al.
# Submitted via: CDex 1.51
#
DISCID=41115717
DTITLE=Vassar Clements, David Bromberg, others - Hillbilly Jazz
DYEAR=1991
DGENRE=Bluegrass
TTITLE0=San Antonio Rose
TTITLE1=Texas Blues
TTITLE2=Take Me Back to Tulsa
TTITLE3=Delta Blues
TTITLE4=Fais Do Do
TTITLE5=Breakfast Feud
TTITLE6=Browns Ferry Blues
TTITLE7=It's Dark Outside
TTITLE8=Panhandle Rag
TTITLE9=Blues for Dixie
TTITLE10=Sentimental Journey
TTITLE11=Back Home in Indiana
TTITLE12=Sitting on Top of the World
TTITLE13=Crazy 'Cause I Love You
TTITLE14=Hang Your Head in Shame
TTITLE15=Vassar's Boogie
TTITLE16=Little Rock Getaway
TTITLE17=Yellow Sun
TTITLE18=Gravy Waltz
TTITLE19=C Jam Blues
TTITLE20=Tippin' In
TTITLE21=Y'All Come
TTITLE22=Last Song for Shelby Jean
EXTD=YEAR: 1991
EXTT0=
EXTT1=
EXTT2=
EXTT3=
EXTT4=
EXTT5=
EXTT6=
EXTT7=
EXTT8=
EXTT9=
EXTT10=
EXTT11=
EXTT12=
EXTT13=
EXTT14=
EXTT15=
EXTT16=
EXTT17=
EXTT18=
EXTT19=
EXTT20=
EXTT21=
EXTT22=
PLAYORDER=
